<svg id="visual" viewBox="0 0 900 600" width="900" height="600" xmlns="http://www.w3.org/2000/svg" xmlns:xlink="http://www.w3.org/1999/xlink" version="1.1"><path d="M0 205L150 205L150 127L300 127L300 67L450 67L450 145L600 145L600 133L750 133L750 127L900 127L900 61L900 0L900 0L750 0L750 0L600 0L600 0L450 0L450 0L300 0L300 0L150 0L150 0L0 0Z" fill="#ffffff"></path><path d="M0 253L150 253L150 157L300 157L300 187L450 187L450 319L600 319L600 349L750 349L750 277L900 277L900 97L900 59L900 125L750 125L750 131L600 131L600 143L450 143L450 65L300 65L300 125L150 125L150 203L0 203Z" fill="#f5f5f5"></path><path d="M0 289L150 289L150 193L300 193L300 271L450 271L450 421L600 421L600 397L750 397L750 367L900 367L900 181L900 95L900 275L750 275L750 347L600 347L600 317L450 317L450 185L300 185L300 155L150 155L150 251L0 251Z" fill="#eaeaea"></path><path d="M0 493L150 493L150 541L300 541L300 457L450 457L450 457L600 457L600 523L750 523L750 409L900 409L900 451L900 179L900 365L750 365L750 395L600 395L600 419L450 419L450 269L300 269L300 191L150 191L150 287L0 287Z" fill="#e0e0e0"></path><path d="M0 601L150 601L150 571L300 571L300 571L450 571L450 571L600 571L600 577L750 577L750 529L900 529L900 595L900 449L900 407L750 407L750 521L600 521L600 455L450 455L450 455L300 455L300 539L150 539L150 491L0 491Z" fill="#d6d6d6"></path><path d="M0 601L150 601L150 601L300 601L300 601L450 601L450 601L600 601L600 601L750 601L750 601L900 601L900 601L900 593L900 527L750 527L750 575L600 575L600 569L450 569L450 569L300 569L300 569L150 569L150 599L0 599Z" fill="#cccccc"></path></svg>